<svg xmlns="http://www.w3.org/2000/svg" width="800" height="800" fill="none" viewBox="0 0 16 16"><path fill="#252f3e" d="M4.5 7.7v.5l.2.3v.3l-.4.3H4l-.2-.3-.1-.3a2 2 0 0 1-1.6.7q-.6 0-1-.4-.4-.3-.4-1T1 6.7a2 2 0 0 1 1.3-.4l1.2.1V6q0-.5-.2-.8t-.9-.3L2 5l-.5.2H1v-.5l.2-.1.6-.3h.9q.9 0 1.4.3.3.5.4 1.4zm-2.2.8.6-.1q.3 0 .5-.3l.2-.4V7h-1L2 7l-.3.6q0 .4.2.6zm4.3.6h-.2v-.3L5 4.7v-.4H6v.3l1 3.5.8-3.5.1-.2h.8l.1.2.9 3.6 1-3.6v-.2h.9v.2L10 8.9V9H9v-.2l-.9-3.4-.8 3.4-.1.2h-.7m6.9.1h-.9l-.6-.3-.1-.1v-.6h.2l1.3.3q.5 0 .8-.2l.3-.5-.2-.4-.5-.2-.8-.3q-.6-.2-.8-.5l-.3-.8.1-.6.4-.4.6-.3h1.6l.3.2h.1v.7h-.3l-1-.3q-.4 0-.7.2l-.2.4.1.4.6.3.8.3q.6.1.8.5.3.3.2.7l-.1.6-.4.5-.6.3z"/><g fill="#f90" fill-rule="evenodd" clip-rule="evenodd"><path d="M14.5 11.8a11.7 11.7 0 0 1-14.4-1q-.2-.4.2-.3a16 16 0 0 0 14 1q.5-.2.2.3"/><path d="M15.2 11c-.2-.3-1.5-.2-2 0q-.3 0-.1-.3c1-.7 2.6-.5 2.8-.3s0 1.9-1 2.7l-.2-.1c.2-.5.7-1.7.5-2"/></g></svg>