<svg xmlns="http://www.w3.org/2000/svg" viewBox="-18 -23 191 191"><path fill="none" d="M-18 7h191v132H-18z"/><path fill="#5d87a1" d="M40 114h-5l-2-25-8 25h-3l-8-25-1 25H8l2-31h7l7 22 8-22h6zm22-23q-3 17-8 25-4 6-9 6l-3-1v-3h2l4-1 2-3-2-6-5-17h5l4 13 1 6 5-19z"/><path fill="#f8981d" d="M131 114h-14V83h5v27h9zm-18 0-6-2 2-2q3-5 3-12 0-16-12-16-6 0-9 4t-4 13 4 12q2 3 8 3l4-1 8 5zm-19-7-1-9q0-12 7-12 3 0 5 3l2 9q0 12-7 12-4 0-6-3m-9-2q0 4-3 6-3 3-7 3l-9-3 1-3q4 3 7 2l4-1 2-3q0-3-4-5l-6-4q-4-2-4-6t3-6q3-3 7-3t7 3l-1 2-6-1-3 1-2 3q1 3 4 5l7 3q3 3 3 7"/><path fill="#5d87a1" d="m138 72-8 1-1 1v1l2 3 3 1 4 3 3 2 1 1v-1l-1-1-1-1-4-4-4-3 3-1h3l2-1-2-2-6-5-4-2h-1l-2-3-3-7-2-4q-5-8-14-14l-5-2h-3l-2-1c-2-1-7-4-9 0q0 3 3 6l1 2 1 2 2 5 1 3 1 1-1 3q-1 7 2 12l3 3q2-2 2-5l1-1 1 3 5 5 3 2-1-1-2-2-4-7-2-3-1-2-1 3-1 6h-1l-2-3V55l1-4-1-2-2-2-2-6-2-3-2-3v-2h3l3 2 2 1h1l4 1 5 2q7 5 12 13l1 2 2 6 3 5 4 2 2 1 4 2zM99 40h-1l1 2 1 1 1-2h-1z"/><path fill="#f8981d" d="M141 114zv-4h-1l-1 2-1-2h-1v4-3l2 3 1-3zm-6 0zv-4h1-3 1z"/></svg>