<svg xmlns="http://www.w3.org/2000/svg" width="800" height="800" preserveAspectRatio="xMidYMid" viewBox="0 -101.5 512 512"><path d="M120.8 80.6h96.6v7.6h-87.7V146H212v7.7h-82.4V217h88.7v7.7h-97.6zm105.2 0h10.3l45.5 63.4 46.4-63.4L391.4 0 287.6 150.6l53.5 74.2h-10.7l-48.6-67.5-49 67.5h-10.4l54-74.2zm119 7.6v-7.6h110v7.6h-50.7v136.6h-8.9V88.2zM0 80.6h11l152.6 228.3-63-84.1L9.3 91.5l-.4 133.3H0zm454 134.2a3 3 0 0 1-3-3.2c0-1.8 1.3-3.2 3-3.2 2 0 3.2 1.4 3.2 3.2s-1.3 3.2-3.1 3.2m8.8-8.5h4.7c0 2.6 2 4.3 4.7 4.3q4.7 0 4.8-5.3v-22h4.9v22c0 6.3-3.7 9.9-9.6 9.9-5.7 0-9.5-3.5-9.5-8.9m25.4-.2h4.7c.5 3 3.3 4.8 7.5 4.8 3.9 0 6.7-2 6.7-4.8q.1-3.5-6-4.7l-4-1q-8.1-1.8-8-8.6c0-5.6 4.4-9.2 11.2-9.2 6.3 0 11 3.6 11.2 8.9h-4.7c-.4-2.9-3-4.7-6.6-4.7-3.8 0-6.3 1.9-6.3 4.7 0 2.2 1.6 3.5 5.7 4.4l3.4.8c6.4 1.5 9 4.1 9 8.8 0 6-4.6 9.7-12 9.7-6.9 0-11.5-3.6-11.8-9.1"/></svg>