<svg xmlns="http://www.w3.org/2000/svg" width="800" height="800" fill="none" viewBox="0 0 32 32"><path fill="#8cc84b" d="M17.2 2.3q-1.2-.6-2.4 0L4.2 8.2Q3 8.9 3 10v11.8q0 1.3 1.2 2l3 1.6q2 1 4 0c1-.4 1.4-1.6 1.4-2.6V11.1q0-.2-.3-.3H11q-.2 0-.3.3v11.7q0 .8-.9 1.2c-1.2.4-4.6-1.8-4.6-1.8l-.2-.3V10q0-.2.3-.3l10.6-5.9h.4l10.6 5.9q.3 0 .3.3V22q0 .1-.2.3L16.3 28q-.2.2-.5.1l-2.7-1.5h-.3l-1.3.5q-.8.3 0 .7l3.3 1.9q1.1.6 2.3 0l10.7-5.9q1.1-.5 1.2-1.9V10.1q0-1.2-1.1-1.9z"/><path fill="#8cc84b" d="M22.5 11.2q-2.1-1-4.6-.7a5 5 0 0 0-3 1.2 3 3 0 0 0-.7 3.2q.6 1.1 1.7 1.5 1.5.4 3 .5 1.4.1 2.7.5.6.1 1 .7 0 .8-.5 1.3c-1.2 1-4.5.8-5.7 0q-.7-.4-.8-1.3 0-.4-.3-.3H14q-.3 0-.4.2c0 2.5 2.2 3.5 4.3 3.8q1.8 0 3.6-.2 1.5-.3 2.4-1.2 1.2-1.4.6-3.2-.5-1-1.8-1.5-1.6-.5-3.2-.6c-1.3-.2-3-.1-3.3-1q-.2-.8.4-1.3c1.1-.8 3.4-.7 4.6-.1q.9.4 1 1.4 0 .2.3.3H24q.2 0 .3-.2 0-2-1.7-3"/></svg>