<svg xmlns="http://www.w3.org/2000/svg" width="800" height="800" viewBox="0 0 32 32"><defs><radialGradient id="a" cx="-16" cy="21" r="18" gradientTransform="translate(27 -9)" gradientUnits="userSpaceOnUse"><stop offset="0" stop-color="#fff"/><stop offset="1" stop-color="#4c6b96"/><stop offset="1" stop-color="#231f20"/></radialGradient></defs><title>file_type_php</title><ellipse cx="16" cy="16" rx="14" ry="7" style="fill:url(#a)"/><ellipse cx="16" cy="16" rx="13" ry="7" style="fill:#6280b6"/><path d="M19 18v-5h-3v-2h-2l-1 3v-1H7l-1 7h2v-2h3l1-1h1v1h2l1-4h1v4zm-8-3v1l-2 1v-3zM26 13h-6l-1 7h2v-2h3l1-1 1-1zm-2 2-1 1-1 1h-1l1-3h2z" style="fill:#fff"/><path d="M10 14h1l1 1-1 2H8zm-4 6h2v-2h3l1-1 1-1v-3H8ZM14 11h2v2h3v5h-2l1-3-1-1h-2v4h-2ZM23 14zv1l-1 2h-2l1-3Zm-4 6h1l1-2h3l1-1 1-1-1-3h-5Z" style="fill:#000004"/></svg>