<svg xmlns="http://www.w3.org/2000/svg" width="800" height="800" viewBox="0 0 32 32"><defs><linearGradient id="a" x1="-133" x2="-133" y1="-203" y2="-203" gradientTransform="matrix(189.38 0 0 189.81 25243 38519)" gradientUnits="userSpaceOnUse"><stop offset="0" stop-color="#387eb8"/><stop offset="1" stop-color="#366994"/></linearGradient><linearGradient id="b" x1="-134" x2="-133" y1="-203" y2="-203" gradientTransform="matrix(189.38 0 0 189.81 25309 38583)" gradientUnits="userSpaceOnUse"><stop offset="0" stop-color="#ffe052"/><stop offset="1" stop-color="#ffc331"/></linearGradient></defs><title>file_type_python</title><path d="M16 2Q7 4 9 5v3h7v1H7s-5 0-5 7 4 7 4 7h2v-3s0-4 4-4h7s4 0 4-4V6s0-4-7-4m-4 2a1 1 0 1 1-1 1z" style="fill:url(#a)"/><path d="M16 30q9-1 7-3v-3h-7v-1h9s5 0 5-7-4-7-4-7h-2v3s0 4-4 4h-7s-4 0-4 4v6s0 4 7 4m4-2a1 1 0 1 1 1-1z" style="fill:url(#b)"/></svg>