<svg xmlns="http://www.w3.org/2000/svg" width="800" height="800" fill="none" viewBox="0 0 32 32"><path fill="#53c1de" d="m19 16-3-3-3 3 3 3z"/><path fill="#53c1de" fill-rule="evenodd" d="M25 11q1-4-2-8-3 0-7 3-3-3-8-3-2 4-1 8-4 1-6 5 2 4 6 5-1 4 1 8 5 0 8-3 4 3 7 3 3-4 2-8 5-1 6-5-1-4-6-5m-1 9-1-4 1-4q4 1 6 4-2 3-6 4m-1 8q-4 0-6-3l2-3 5-1q1 4-1 7M9 28q-2-3 0-7l4 1 2 3q-2 3-6 3M2 16q2-3 6-4l1 4-1 4q-4-1-6-4M9 5q4-1 6 2l-2 3-4 1Q7 7 9 5m11 7h3l-1 3zm-4-4 2 2h-4zm-6 7-1-3h3zm2 5H9l1-3zm4 4-2-2h4zm6-7 1 3h-3zm-3 4h-6l-2-5 2-5h6l2 5zm4-17q2 4 0 7l-4-1-2-3q2-3 6-3" clip-rule="evenodd"/></svg>